<?xml version="1.0" standalone="no"?>
<!DOCTYPE svg PUBLIC "-//W3C//DTD SVG 20010904//EN"
 "http://www.w3.org/TR/2001/REC-SVG-20010904/DTD/svg10.dtd">
<svg version="1.0" xmlns="http://www.w3.org/2000/svg"
 width="200.000000pt" height="200.000000pt" viewBox="0 0 200.000000 200.000000"
 preserveAspectRatio="xMidYMid meet">

<g transform="translate(0.000000,200.000000) scale(0.100000,-0.100000)"
fill="#000000" stroke="none">
<path d="M905 1936 c-215 -52 -357 -259 -323 -471 18 -113 154 -416 301 -671
58 -100 97 -122 162 -92 49 22 271 446 344 658 48 137 45 232 -8 346 -83 178
-287 276 -476 230z m182 -237 c83 -40 129 -137 104 -221 -30 -100 -104 -153
-206 -146 -70 4 -121 34 -156 91 -99 164 84 360 258 276z"/>
<path d="M1392 1004 l-32 -64 140 -70 c77 -39 140 -73 139 -78 0 -4 -38 -39
-82 -78 -106 -91 -106 -93 -28 -265 34 -73 60 -133 58 -135 -1 -1 -128 -27
-282 -59 l-280 -57 -340 187 c-187 103 -346 193 -353 200 -10 9 -2 35 43 136
31 68 60 127 63 131 4 4 46 15 92 23 47 8 95 18 107 20 l23 5 -32 65 c-18 36
-37 65 -43 65 -5 0 -59 -9 -118 -19 -76 -13 -114 -24 -127 -37 -10 -11 -57
-106 -105 -213 -83 -187 -91 -214 -68 -247 5 -6 194 -113 422 -238 l413 -227
347 71 c190 39 358 75 374 82 27 10 44 46 39 78 -2 8 -33 81 -69 163 -36 81
-64 149 -62 150 72 54 211 185 215 203 12 47 -19 70 -225 173 l-198 99 -31
-64z"/>
</g>
</svg>
